<?xml version="1.0" encoding="iso-8859-1"?>
<!-- Generator: Adobe Illustrator 19.0.0, SVG Export Plug-In . SVG Version: 6.00 Build 0)  -->
<svg version="1.1" id="Capa_1" xmlns="http://www.w3.org/2000/svg" xmlns:xlink="http://www.w3.org/1999/xlink" x="0px" y="0px"
	 viewBox="0 0 490 490" style="enable-background:new 0 0 490 490;" xml:space="preserve">
<path id="XMLID_1214_" d="M456.731,27.573c-9.858-13.976-26.487-21.08-43.39-18.543L286.654,28.055C279.965,11.617,263.813,0,245,0
	c-18.802,0-34.945,11.603-41.642,28.056L76.66,9.03c-16.91-2.541-33.533,4.566-43.391,18.543
	c-9.873,13.997-10.985,32.074-2.904,47.176L146.867,292.47c-1.283,1.123-2.538,2.296-3.762,3.517
	c-14.775,14.743-22.912,34.346-22.912,55.2s8.137,40.457,22.904,55.192c0.651,0.65,71.038,70.885,71.038,70.885
	C222.646,485.756,233.821,490,245,490c11.176,0,22.356-4.246,30.864-12.736c0,0,70.168-70.016,71.031-70.877
	c14.774-14.743,22.912-34.346,22.912-55.199c0-20.854-8.137-40.458-22.912-55.202c-1.225-1.221-2.479-2.393-3.762-3.517
	L459.635,74.749C467.717,59.646,466.603,41.569,456.731,27.573z M230.056,44.781c0.088-8.164,6.759-14.78,14.944-14.78
	c8.184,0,14.854,6.613,14.944,14.776c-0.002,0.129-0.001,0.259,0,0.388c-0.078,8.173-6.752,14.798-14.944,14.798
	c-8.181,0-14.847-6.607-14.944-14.836C230.057,45.012,230.057,44.896,230.056,44.781z M325.702,385.149
	c-0.001,0.001-0.002,0.003-0.003,0.004c-0.651,0.65-71.028,70.874-71.028,70.874c-5.333,5.322-14.009,5.322-19.342,0
	c0,0-70.373-70.219-71.031-70.877c-9.093-9.073-14.101-21.135-14.101-33.963c0-12.828,5.008-24.89,14.101-33.963
	c9.396-9.376,21.736-14.063,34.079-14.063c12.343,0,24.69,4.689,34.089,14.069c0.497,0.494,0.976,0.999,1.445,1.511
	c1.993,2.168,5.839,4.846,11.408,4.846c4.102,0,7.994-1.826,10.77-4.846c0.473-0.514,0.954-1.022,1.45-1.517
	c18.79-18.753,49.37-18.754,68.162,0.001c9.094,9.074,14.102,21.135,14.102,33.962C339.804,364.015,334.796,376.076,325.702,385.149
	z M433.181,60.595L317.155,277.425c-23.944-8.214-51.124-4.516-72.155,11.097c-13.782-10.229-30.202-15.345-46.62-15.345
	c-8.641,0-17.279,1.416-25.535,4.249L56.819,60.596c-2.736-5.113-2.374-10.994,0.968-15.731c3.327-4.717,8.712-7.024,14.417-6.165
	l129.817,19.494c5.644,18.376,22.776,31.771,42.979,31.771c20.202,0,37.334-13.395,42.978-31.771l129.818-19.494
	c5.7-0.857,11.089,1.448,14.417,6.165C435.554,49.602,435.916,55.483,433.181,60.595z"/>
<g>
</g>
<g>
</g>
<g>
</g>
<g>
</g>
<g>
</g>
<g>
</g>
<g>
</g>
<g>
</g>
<g>
</g>
<g>
</g>
<g>
</g>
<g>
</g>
<g>
</g>
<g>
</g>
<g>
</g>
</svg>
